<?xml version="1.0" standalone="no"?>
<!DOCTYPE svg PUBLIC "-//W3C//DTD SVG 20010904//EN"
 "http://www.w3.org/TR/2001/REC-SVG-20010904/DTD/svg10.dtd">
<svg version="1.0" xmlns="http://www.w3.org/2000/svg"
 width="1024.000000pt" height="1024.000000pt" viewBox="0 0 1024.000000 1024.000000"
 preserveAspectRatio="xMidYMid meet">
<metadata>
Created by potrace 1.14, written by Peter Selinger 2001-2017
</metadata>
<g transform="translate(0.000000,1024.000000) scale(0.100000,-0.100000)"
fill="#000000" stroke="none">
<path d="M2975 8183 c-144 -20 -300 -82 -420 -168 -66 -47 -178 -157 -224
-220 -95 -130 -163 -300 -181 -450 -13 -119 -13 -4280 0 -4419 19 -189 85
-361 197 -511 129 -173 325 -306 530 -357 l88 -22 2150 -1 2150 0 85 23 c346
93 602 356 702 722 l23 85 0 2265 0 2265 -28 89 c-114 364 -403 628 -757 692
-62 11 -450 13 -2180 12 -1158 0 -2118 -3 -2135 -5z m1373 -609 c37 -26 30
-74 -24 -146 -134 -182 -191 -409 -164 -654 25 -234 102 -406 254 -563 175
-181 373 -271 632 -287 403 -25 745 159 910 491 117 236 141 501 68 751 -28
99 -51 146 -108 228 -69 99 -76 110 -76 134 0 12 9 31 20 42 20 20 33 20 594
20 348 0 594 -4 627 -10 203 -39 356 -209 380 -425 6 -58 9 -810 7 -2100 l-3
-2010 -22 -65 c-59 -172 -202 -297 -377 -329 -41 -8 -647 -11 -1960 -11 -1593
0 -1912 3 -1967 14 -181 39 -318 168 -364 341 -13 52 -15 300 -15 2113 0 2288
-5 2130 69 2254 60 99 179 186 296 214 36 9 210 13 625 13 506 1 578 -1 598
-15z m867 -310 c255 -66 375 -342 254 -582 -152 -298 -588 -289 -732 16 -30
63 -32 74 -32 177 0 98 3 116 27 167 85 181 286 274 483 222z"/>
<path d="M3420 6085 c-63 -20 -111 -63 -149 -135 -27 -51 -33 -73 -34 -128 -1
-82 16 -121 87 -199 56 -64 628 -613 651 -625 18 -11 2233 -17 2261 -7 50 18
693 651 726 714 30 57 29 163 -2 229 -49 102 -147 166 -255 166 -104 -1 -125
-16 -406 -296 l-256 -254 -932 0 -932 0 -257 251 c-279 274 -313 299 -407 298
-27 0 -70 -7 -95 -14z"/>
<path d="M3450 4571 c-175 -54 -258 -234 -181 -396 31 -67 72 -107 141 -139
l45 -21 1660 0 1660 0 51 27 c108 57 160 149 152 270 -6 88 -29 138 -91 195
-85 78 47 73 -1781 72 -897 0 -1642 -4 -1656 -8z"/>
<path d="M4466 3575 c-112 -46 -166 -127 -166 -252 0 -121 59 -217 163 -264
l52 -24 595 0 c584 0 596 0 641 21 111 51 169 141 169 260 0 62 -5 81 -33 136
-35 68 -95 118 -165 138 -23 6 -252 10 -617 10 l-580 0 -59 -25z"/>
</g>
</svg>
