<?xml version="1.0" standalone="no"?>
<!DOCTYPE svg PUBLIC "-//W3C//DTD SVG 20010904//EN"
 "http://www.w3.org/TR/2001/REC-SVG-20010904/DTD/svg10.dtd">
<svg version="1.0" xmlns="http://www.w3.org/2000/svg"
 width="1024.000000pt" height="1024.000000pt" viewBox="0 0 1024.000000 1024.000000"
 preserveAspectRatio="xMidYMid meet">
<metadata>
Created by potrace 1.14, written by Peter Selinger 2001-2017
</metadata>
<g transform="translate(0.000000,1024.000000) scale(0.100000,-0.100000)"
fill="#000000" stroke="none">
<path d="M0 5120 l0 -5120 5120 0 5120 0 0 5120 0 5120 -5120 0 -5120 0 0
-5120z m6781 2219 c208 -81 347 -238 378 -426 9 -49 11 -505 9 -1668 l-3
-1600 -26 -67 c-57 -147 -154 -261 -277 -326 -123 -66 -17 -62 -1747 -62
-1047 0 -1585 4 -1615 11 -183 42 -363 227 -415 425 -13 51 -15 255 -15 1660
0 1572 0 1602 20 1680 37 143 143 265 295 339 50 24 113 48 140 54 30 5 670 8
1620 7 l1570 -1 66 -26z"/>
<path d="M3605 7001 c-86 -14 -159 -86 -176 -172 -4 -24 -8 -726 -9 -1560 0
-1699 -6 -1572 74 -1654 25 -27 56 -47 81 -54 28 -8 485 -11 1553 -11 1343 0
1517 2 1550 15 51 22 81 52 108 110 l24 50 0 1556 c0 1675 3 1585 -50 1652
-12 15 -41 38 -63 50 l-42 22 -1505 1 c-828 1 -1523 -1 -1545 -5z m2348 -586
c91 -19 155 -56 227 -131 83 -86 112 -152 118 -270 6 -117 -18 -203 -81 -286
-84 -112 -147 -148 -322 -183 -124 -25 -199 -38 -800 -131 -569 -88 -728 -114
-733 -119 -10 -9 7 -17 55 -27 26 -5 300 -51 608 -104 975 -165 996 -169 1104
-249 140 -103 196 -259 161 -446 -30 -161 -168 -303 -324 -336 -79 -16 -1889
-19 -1949 -2 -43 12 -101 59 -123 100 -7 15 -14 51 -14 80 0 68 33 126 92 159
l43 25 935 0 c861 0 938 1 962 17 14 9 28 26 30 36 8 29 -20 79 -50 91 -25 10
-528 97 -817 141 -143 22 -446 75 -683 120 -223 42 -294 85 -362 219 -39 78
-55 174 -41 241 30 138 131 248 261 284 70 19 663 117 1190 196 223 33 423 67
446 76 48 17 69 52 53 87 -24 54 -1 52 -734 52 -1201 1 -1207 1 -1246 28 -55
37 -79 82 -79 145 0 94 41 156 125 189 22 8 272 12 955 12 768 1 937 -2 993
-14z"/>
</g>
</svg>
